# xmcd
#
# Track frame offsets: 
#        150
#        16451
#        36195
#        53265
#        70594
#        92788
#        108841
#        126476
#        146898
#        168057
#        185389
#
# Disc length: 2839 seconds
#
# Revision: 0
# Processed by: cddbd v1.5.2PL0 Copyright (c) Steve Scherf et al.
# Submitted via: ExactAudioCopy v0.95b3
#
DISCID=8c0b150b
DTITLE=Robert Burton Hubele - Three Little Words
DYEAR=2004
DGENRE=Blues
TTITLE0=Life Is Good
TTITLE1=The Only One
TTITLE2=She Brings Him (Coffee)
TTITLE3=My Honey Bee
TTITLE4=Same For Me
TTITLE5=Three Little Words
TTITLE6=Too Many Kisses
TTITLE7=Your Baby's Tears
TTITLE8=It's Just Blue
TTITLE9=Coyotes Singin' D'Blues
TTITLE10=The Human Heart
EXTD=
EXTT0=
EXTT1=
EXTT2=
EXTT3=
EXTT4=
EXTT5=
EXTT6=
EXTT7=
EXTT8=
EXTT9=
EXTT10=
PLAYORDER=
